<svg xmlns="http://www.w3.org/2000/svg" xmlns:xlink="http://www.w3.org/1999/xlink" width="500" zoomAndPan="magnify" viewBox="0 0 375 374.999991" height="500" preserveAspectRatio="xMidYMid meet" version="1.0"><defs><g/><clipPath id="dc7e50473f"><path d="M 83.445312 180.203125 L 147 180.203125 L 147 241.703125 L 83.445312 241.703125 Z M 83.445312 180.203125 " clip-rule="nonzero"/></clipPath></defs><g clip-path="url(#dc7e50473f)"><path fill="#518b03" d="M 94.335938 192.667969 C 100.351562 192.667969 105.226562 197.542969 105.226562 203.558594 C 105.226562 209.574219 100.351562 214.449219 94.335938 214.449219 C 88.320312 214.449219 83.445312 209.574219 83.445312 203.558594 C 83.445312 197.542969 88.320312 192.667969 94.335938 192.667969 Z M 100.796875 209.546875 C 102.253906 207.976562 103.144531 205.871094 103.144531 203.558594 C 103.144531 198.691406 99.203125 194.75 94.335938 194.75 C 89.46875 194.75 85.523438 198.691406 85.523438 203.558594 C 85.523438 205.871094 86.414062 207.976562 87.875 209.546875 C 88.835938 206.910156 91.367188 205.027344 94.335938 205.027344 C 97.304688 205.027344 99.835938 206.910156 100.796875 209.546875 Z M 94.335938 204.507812 C 92.421875 204.507812 90.855469 202.945312 90.855469 201.03125 C 90.855469 199.117188 92.421875 197.550781 94.335938 197.550781 C 96.25 197.550781 97.8125 199.117188 97.8125 201.03125 C 97.8125 202.945312 96.25 204.507812 94.335938 204.507812 Z M 117.671875 181.855469 C 118.542969 182.0625 119.371094 182.40625 120.132812 182.875 L 121.730469 182.164062 L 123.617188 184.046875 L 122.90625 185.648438 C 123.378906 186.410156 123.722656 187.238281 123.925781 188.113281 L 125.558594 188.738281 L 125.558594 191.40625 L 123.925781 192.03125 C 123.722656 192.902344 123.375 193.730469 122.90625 194.492188 L 123.617188 196.09375 L 121.730469 197.976562 L 120.132812 197.269531 C 119.375 197.738281 118.542969 198.082031 117.671875 198.289062 L 117.042969 199.917969 L 114.378906 199.917969 L 113.75 198.289062 C 112.878906 198.082031 112.050781 197.734375 111.289062 197.269531 L 109.6875 197.976562 L 107.804688 196.09375 L 108.515625 194.492188 C 108.046875 193.734375 107.703125 192.902344 107.492188 192.03125 L 105.859375 191.40625 L 105.859375 188.738281 L 107.492188 188.113281 C 107.703125 187.238281 108.046875 186.410156 108.515625 185.648438 L 107.804688 184.046875 L 109.6875 182.164062 L 111.289062 182.875 C 112.050781 182.40625 112.878906 182.0625 113.75 181.855469 L 114.378906 180.222656 L 117.042969 180.222656 Z M 115.710938 185.421875 C 113.140625 185.421875 111.0625 187.503906 111.0625 190.070312 C 111.0625 192.640625 113.140625 194.722656 115.710938 194.722656 C 118.277344 194.722656 120.359375 192.640625 120.359375 190.070312 C 120.359375 187.503906 118.277344 185.421875 115.710938 185.421875 Z M 137.085938 213.410156 C 131.660156 213.410156 127.238281 208.984375 127.238281 203.558594 C 127.238281 198.136719 131.660156 193.710938 137.085938 193.710938 C 142.511719 193.710938 146.9375 198.136719 146.9375 203.558594 C 146.9375 208.984375 142.511719 213.410156 137.085938 213.410156 Z M 136.046875 197.808594 C 135.851562 197.855469 135.660156 197.914062 135.476562 197.988281 C 134.117188 198.523438 133.140625 199.699219 133.21875 201.292969 C 133.316406 203.371094 135.175781 204.265625 136.929688 204.550781 C 137.382812 204.625 137.871094 204.734375 138.300781 204.929688 C 138.742188 205.128906 139.128906 205.429688 139.195312 205.992188 C 139.246094 206.414062 139.046875 206.714844 138.757812 206.914062 C 138.320312 207.214844 137.722656 207.347656 137.191406 207.359375 L 137.1875 207.359375 C 136.207031 207.382812 135.1875 206.960938 134.9375 205.960938 C 134.800781 205.402344 134.234375 205.0625 133.675781 205.203125 C 133.121094 205.339844 132.78125 205.90625 132.917969 206.464844 C 133.308594 208.035156 134.574219 209.011719 136.046875 209.328125 L 136.046875 209.792969 C 136.046875 210.367188 136.511719 210.835938 137.085938 210.835938 C 137.660156 210.835938 138.128906 210.367188 138.128906 209.792969 L 138.128906 209.34375 C 139.871094 209.011719 141.511719 207.804688 141.261719 205.742188 C 141.003906 203.617188 139.054688 202.792969 137.265625 202.496094 C 136.84375 202.429688 136.398438 202.324219 136.015625 202.136719 C 135.640625 201.953125 135.320312 201.679688 135.296875 201.195312 L 135.296875 201.191406 C 135.265625 200.5625 135.703125 200.136719 136.238281 199.925781 C 137.195312 199.546875 138.53125 199.785156 139.027344 200.972656 C 139.25 201.503906 139.859375 201.753906 140.390625 201.53125 C 140.921875 201.308594 141.171875 200.695312 140.949219 200.167969 C 140.386719 198.832031 139.304688 198.066406 138.128906 197.796875 L 138.128906 197.328125 C 138.128906 196.753906 137.660156 196.289062 137.085938 196.289062 C 136.511719 196.289062 136.046875 196.753906 136.046875 197.328125 Z M 90.195312 227.03125 C 90.199219 227.039062 90.203125 227.042969 90.203125 227.050781 L 95.949219 237.199219 C 95.949219 237.203125 95.953125 237.207031 95.957031 237.214844 L 97.21875 239.445312 C 97.332031 239.644531 97.261719 239.898438 97.0625 240.011719 L 94.292969 241.578125 C 94.09375 241.691406 93.839844 241.621094 93.726562 241.425781 L 93.726562 241.421875 L 85.578125 227.023438 C 85.464844 226.824219 85.535156 226.574219 85.730469 226.460938 L 85.734375 226.460938 L 88.507812 224.890625 C 88.703125 224.777344 88.957031 224.851562 89.074219 225.050781 Z M 88.082031 226.535156 C 87.453125 226.625 87.019531 227.207031 87.109375 227.835938 C 87.203125 228.464844 87.789062 228.902344 88.417969 228.8125 C 89.046875 228.71875 89.480469 228.132812 89.390625 227.503906 C 89.296875 226.875 88.710938 226.441406 88.082031 226.535156 Z M 97.246094 235.265625 L 92.519531 226.914062 L 99.742188 222.730469 C 101.40625 221.769531 103.082031 221.003906 104.910156 221.597656 C 107.289062 222.371094 111.167969 224.011719 115.128906 224.742188 C 116.023438 225.0625 116.605469 225.957031 116.355469 226.878906 L 116.355469 226.882812 C 116.109375 227.796875 115.324219 228.234375 114.257812 228.117188 C 112.082031 227.667969 110.066406 227.007812 107.824219 226.40625 C 107.269531 226.257812 106.699219 226.585938 106.550781 227.140625 C 106.402344 227.695312 106.730469 228.269531 107.285156 228.417969 C 109.582031 229.035156 113.910156 230.171875 113.925781 230.171875 C 113.925781 230.171875 115.152344 230.375 115.15625 230.375 C 116.976562 230.664062 118.652344 230.40625 120.25 229.476562 L 130.128906 223.722656 C 132.398438 222.398438 133.964844 222.121094 134.984375 222.542969 C 135.757812 222.867188 136.0625 223.644531 136.042969 224.375 C 136.027344 224.996094 135.796875 225.617188 135.3125 225.917969 L 117.382812 236.957031 C 115.988281 237.816406 114.457031 238.011719 112.875 237.589844 L 99.871094 234.105469 C 99.601562 234.03125 99.320312 234.070312 99.078125 234.207031 Z M 116.75 211.742188 C 116.75 212.316406 116.285156 212.785156 115.710938 212.785156 C 115.136719 212.785156 114.667969 212.316406 114.667969 211.742188 L 114.667969 204.664062 C 114.667969 204.089844 115.136719 203.621094 115.710938 203.621094 C 116.285156 203.621094 116.75 204.089844 116.75 204.664062 Z M 119.492188 215.617188 C 119.042969 215.972656 118.386719 215.894531 118.03125 215.445312 C 117.675781 214.996094 117.75 214.339844 118.199219 213.984375 L 124.285156 209.171875 C 124.734375 208.8125 125.390625 208.890625 125.746094 209.339844 C 126.101562 209.789062 126.027344 210.445312 125.578125 210.800781 Z M 113.21875 213.984375 C 113.667969 214.339844 113.746094 214.996094 113.390625 215.445312 C 113.03125 215.894531 112.378906 215.972656 111.925781 215.617188 L 105.84375 210.800781 C 105.394531 210.445312 105.316406 209.789062 105.671875 209.339844 C 106.03125 208.890625 106.683594 208.8125 107.136719 209.171875 Z M 113.21875 213.984375 " fill-opacity="1" fill-rule="evenodd"/></g><g fill="#518b03" fill-opacity="1"><g transform="translate(151.051068, 221.759542)"><g><path d="M 10.515625 -22.15625 L 15.625 -22.15625 C 15.625 -23 15.5625 -23.898438 15.4375 -24.859375 C 15.3125 -25.816406 15.007812 -26.695312 14.53125 -27.5 C 14.0625 -28.300781 13.351562 -28.960938 12.40625 -29.484375 C 11.46875 -30.015625 10.203125 -30.257812 8.609375 -30.21875 C 7.296875 -30.1875 6.203125 -29.914062 5.328125 -29.40625 C 4.460938 -28.894531 3.773438 -28.257812 3.265625 -27.5 C 2.753906 -26.695312 2.398438 -25.820312 2.203125 -24.875 C 2.003906 -23.9375 1.90625 -23.03125 1.90625 -22.15625 C 1.90625 -21.070312 2.066406 -20.101562 2.390625 -19.25 C 2.722656 -18.394531 3.125 -17.601562 3.59375 -16.875 C 4.101562 -16.15625 4.65625 -15.484375 5.25 -14.859375 C 5.851562 -14.242188 6.484375 -13.628906 7.140625 -13.015625 C 7.972656 -12.179688 8.75 -11.316406 9.46875 -10.421875 C 10.195312 -9.535156 10.5625 -8.640625 10.5625 -7.734375 C 10.5625 -6.859375 10.441406 -6.039062 10.203125 -5.28125 C 9.972656 -4.519531 9.457031 -4.140625 8.65625 -4.140625 C 8.070312 -4.140625 7.617188 -4.300781 7.296875 -4.625 C 6.972656 -4.957031 6.71875 -5.359375 6.53125 -5.828125 C 6.351562 -6.265625 6.234375 -6.742188 6.171875 -7.265625 C 6.117188 -7.796875 6.09375 -8.257812 6.09375 -8.65625 L 0.984375 -8.65625 C 0.984375 -7.851562 1.0625 -6.9375 1.21875 -5.90625 C 1.382812 -4.875 1.738281 -3.882812 2.28125 -2.9375 C 2.832031 -2.03125 3.613281 -1.238281 4.625 -0.5625 C 5.644531 0.101562 6.988281 0.4375 8.65625 0.4375 C 9.96875 0.4375 11.066406 0.179688 11.953125 -0.328125 C 12.835938 -0.835938 13.570312 -1.488281 14.15625 -2.28125 C 14.695312 -3.050781 15.085938 -3.914062 15.328125 -4.875 C 15.566406 -5.832031 15.6875 -6.785156 15.6875 -7.734375 C 15.6875 -8.710938 15.53125 -9.628906 15.21875 -10.484375 C 14.90625 -11.335938 14.515625 -12.144531 14.046875 -12.90625 C 13.578125 -13.632812 13.03125 -14.320312 12.40625 -14.96875 C 11.789062 -15.625 11.195312 -16.242188 10.625 -16.828125 C 10.1875 -17.222656 9.757812 -17.640625 9.34375 -18.078125 C 8.925781 -18.515625 8.550781 -18.953125 8.21875 -19.390625 C 7.851562 -19.816406 7.5625 -20.265625 7.34375 -20.734375 C 7.132812 -21.210938 7.03125 -21.6875 7.03125 -22.15625 C 7.03125 -22.519531 7.046875 -22.910156 7.078125 -23.328125 C 7.117188 -23.742188 7.207031 -24.117188 7.34375 -24.453125 C 7.457031 -24.773438 7.625 -25.050781 7.84375 -25.28125 C 8.0625 -25.519531 8.351562 -25.640625 8.71875 -25.640625 C 9.144531 -25.640625 9.476562 -25.519531 9.71875 -25.28125 C 9.957031 -25.050781 10.148438 -24.773438 10.296875 -24.453125 C 10.398438 -24.085938 10.460938 -23.703125 10.484375 -23.296875 C 10.503906 -22.898438 10.515625 -22.519531 10.515625 -22.15625 Z M 10.515625 -22.15625 "/></g></g></g><g fill="#518b03" fill-opacity="1"><g transform="translate(171.794251, 221.759542)"><g><path d="M 2.171875 -29.78125 L 2.171875 10.234375 L 7.671875 10.234375 L 7.671875 -1.953125 C 7.929688 -1.742188 8.171875 -1.535156 8.390625 -1.328125 C 8.609375 -1.128906 8.84375 -0.941406 9.09375 -0.765625 C 9.488281 -0.472656 9.945312 -0.203125 10.46875 0.046875 C 11 0.304688 11.519531 0.4375 12.03125 0.4375 C 12.789062 0.4375 13.429688 0.25 13.953125 -0.125 C 14.484375 -0.507812 14.929688 -0.992188 15.296875 -1.578125 C 15.628906 -2.117188 15.875 -2.734375 16.03125 -3.421875 C 16.195312 -4.117188 16.28125 -4.773438 16.28125 -5.390625 L 16.28125 -24.390625 C 16.28125 -25.015625 16.195312 -25.671875 16.03125 -26.359375 C 15.875 -27.046875 15.628906 -27.679688 15.296875 -28.265625 C 14.929688 -28.804688 14.484375 -29.265625 13.953125 -29.640625 C 13.429688 -30.023438 12.789062 -30.21875 12.03125 -30.21875 C 11.488281 -30.21875 10.984375 -30.09375 10.515625 -29.84375 C 9.960938 -29.582031 9.46875 -29.289062 9.03125 -28.96875 C 8.601562 -28.644531 8.148438 -28.265625 7.671875 -27.828125 L 7.671875 -29.78125 Z M 7.671875 -6.53125 L 7.671875 -23.25 C 7.671875 -23.757812 7.84375 -24.1875 8.1875 -24.53125 C 8.539062 -24.875 8.914062 -25.046875 9.3125 -25.046875 C 9.707031 -25.046875 10.050781 -24.875 10.34375 -24.53125 C 10.632812 -24.1875 10.78125 -23.757812 10.78125 -23.25 L 10.78125 -6.53125 C 10.78125 -6.019531 10.632812 -5.59375 10.34375 -5.25 C 10.050781 -4.90625 9.707031 -4.734375 9.3125 -4.734375 C 8.914062 -4.734375 8.539062 -4.921875 8.1875 -5.296875 C 7.84375 -5.679688 7.671875 -6.09375 7.671875 -6.53125 Z M 7.671875 -6.53125 "/></g></g></g><g fill="#518b03" fill-opacity="1"><g transform="translate(194.007378, 221.759542)"><g><path d="M 15.953125 -10.671875 L 10.84375 -10.671875 L 10.84375 -7.40625 C 10.84375 -6.789062 10.769531 -6.28125 10.625 -5.875 C 10.507812 -5.476562 10.316406 -5.132812 10.046875 -4.84375 C 9.773438 -4.550781 9.382812 -4.40625 8.875 -4.40625 C 8.40625 -4.40625 8.023438 -4.550781 7.734375 -4.84375 C 7.191406 -5.5 6.898438 -6.351562 6.859375 -7.40625 L 6.859375 -13.890625 L 15.953125 -13.890625 L 15.953125 -22.546875 C 15.921875 -23.265625 15.832031 -23.929688 15.6875 -24.546875 C 15.539062 -25.171875 15.335938 -25.773438 15.078125 -26.359375 C 14.648438 -27.296875 13.953125 -28.171875 12.984375 -28.984375 C 12.023438 -29.804688 10.65625 -30.21875 8.875 -30.21875 C 7.0625 -30.21875 5.703125 -29.820312 4.796875 -29.03125 C 2.898438 -27.46875 1.882812 -25.25 1.75 -22.375 L 1.75 -7.40625 C 1.78125 -6.675781 1.867188 -5.984375 2.015625 -5.328125 C 2.160156 -4.679688 2.359375 -4.066406 2.609375 -3.484375 C 3.046875 -2.503906 3.742188 -1.601562 4.703125 -0.78125 C 5.671875 0.03125 7.046875 0.4375 8.828125 0.4375 C 10.640625 0.4375 12.015625 0.0351562 12.953125 -0.765625 C 13.941406 -1.554688 14.671875 -2.46875 15.140625 -3.5 C 15.609375 -4.539062 15.878906 -5.789062 15.953125 -7.25 Z M 6.859375 -18.1875 L 6.859375 -22.375 C 6.898438 -22.664062 6.9375 -22.9375 6.96875 -23.1875 C 7.007812 -23.445312 7.066406 -23.6875 7.140625 -23.90625 C 7.273438 -24.300781 7.46875 -24.648438 7.71875 -24.953125 C 7.976562 -25.265625 8.363281 -25.421875 8.875 -25.421875 C 9.382812 -25.421875 9.785156 -25.28125 10.078125 -25 C 10.585938 -24.375 10.84375 -23.5 10.84375 -22.375 L 10.84375 -18.1875 Z M 6.859375 -18.1875 "/></g></g></g><g fill="#518b03" fill-opacity="1"><g transform="translate(215.512752, 221.759542)"><g><path d="M 15.953125 -10.671875 L 10.84375 -10.671875 L 10.84375 -7.40625 C 10.84375 -6.789062 10.769531 -6.28125 10.625 -5.875 C 10.507812 -5.476562 10.316406 -5.132812 10.046875 -4.84375 C 9.773438 -4.550781 9.382812 -4.40625 8.875 -4.40625 C 8.40625 -4.40625 8.023438 -4.550781 7.734375 -4.84375 C 7.191406 -5.5 6.898438 -6.351562 6.859375 -7.40625 L 6.859375 -13.890625 L 15.953125 -13.890625 L 15.953125 -22.546875 C 15.921875 -23.265625 15.832031 -23.929688 15.6875 -24.546875 C 15.539062 -25.171875 15.335938 -25.773438 15.078125 -26.359375 C 14.648438 -27.296875 13.953125 -28.171875 12.984375 -28.984375 C 12.023438 -29.804688 10.65625 -30.21875 8.875 -30.21875 C 7.0625 -30.21875 5.703125 -29.820312 4.796875 -29.03125 C 2.898438 -27.46875 1.882812 -25.25 1.75 -22.375 L 1.75 -7.40625 C 1.78125 -6.675781 1.867188 -5.984375 2.015625 -5.328125 C 2.160156 -4.679688 2.359375 -4.066406 2.609375 -3.484375 C 3.046875 -2.503906 3.742188 -1.601562 4.703125 -0.78125 C 5.671875 0.03125 7.046875 0.4375 8.828125 0.4375 C 10.640625 0.4375 12.015625 0.0351562 12.953125 -0.765625 C 13.941406 -1.554688 14.671875 -2.46875 15.140625 -3.5 C 15.609375 -4.539062 15.878906 -5.789062 15.953125 -7.25 Z M 6.859375 -18.1875 L 6.859375 -22.375 C 6.898438 -22.664062 6.9375 -22.9375 6.96875 -23.1875 C 7.007812 -23.445312 7.066406 -23.6875 7.140625 -23.90625 C 7.273438 -24.300781 7.46875 -24.648438 7.71875 -24.953125 C 7.976562 -25.265625 8.363281 -25.421875 8.875 -25.421875 C 9.382812 -25.421875 9.785156 -25.28125 10.078125 -25 C 10.585938 -24.375 10.84375 -23.5 10.84375 -22.375 L 10.84375 -18.1875 Z M 6.859375 -18.1875 "/></g></g></g><g fill="#518b03" fill-opacity="1"><g transform="translate(237.01813, 221.759542)"><g><path d="M 16.0625 0 L 16.0625 -40.015625 L 10.5625 -40.015625 L 10.5625 -27.828125 C 10.3125 -28.046875 10.078125 -28.253906 9.859375 -28.453125 C 9.640625 -28.648438 9.398438 -28.84375 9.140625 -29.03125 C 8.742188 -29.3125 8.28125 -29.578125 7.75 -29.828125 C 7.226562 -30.085938 6.710938 -30.21875 6.203125 -30.21875 C 5.441406 -30.21875 4.796875 -30.023438 4.265625 -29.640625 C 3.742188 -29.265625 3.320312 -28.804688 3 -28.265625 C 2.632812 -27.679688 2.367188 -27.046875 2.203125 -26.359375 C 2.035156 -25.671875 1.953125 -25.015625 1.953125 -24.390625 L 1.953125 -5.390625 C 1.953125 -4.773438 2.035156 -4.117188 2.203125 -3.421875 C 2.367188 -2.734375 2.632812 -2.117188 3 -1.578125 C 3.320312 -0.992188 3.742188 -0.507812 4.265625 -0.125 C 4.796875 0.25 5.441406 0.4375 6.203125 0.4375 C 6.753906 0.4375 7.28125 0.304688 7.78125 0.046875 C 8.289062 -0.203125 8.765625 -0.488281 9.203125 -0.8125 C 9.640625 -1.144531 10.09375 -1.523438 10.5625 -1.953125 L 10.5625 0 Z M 10.5625 -23.25 L 10.5625 -6.53125 C 10.5625 -6.019531 10.390625 -5.59375 10.046875 -5.25 C 9.703125 -4.90625 9.332031 -4.734375 8.9375 -4.734375 C 8.53125 -4.734375 8.179688 -4.90625 7.890625 -5.25 C 7.597656 -5.59375 7.453125 -6.019531 7.453125 -6.53125 L 7.453125 -23.25 C 7.453125 -23.757812 7.597656 -24.1875 7.890625 -24.53125 C 8.179688 -24.875 8.53125 -25.046875 8.9375 -25.046875 C 9.332031 -25.046875 9.703125 -24.851562 10.046875 -24.46875 C 10.390625 -24.09375 10.5625 -23.6875 10.5625 -23.25 Z M 10.5625 -23.25 "/></g></g></g><g fill="#518b03" fill-opacity="1"><g transform="translate(259.231259, 221.759542)"><g><path d="M 2.171875 -40.015625 L 2.171875 -34.515625 L 7.671875 -34.515625 L 7.671875 -40.015625 Z M 2.171875 0 L 7.671875 0 L 7.671875 -29.78125 L 2.171875 -29.78125 Z M 2.171875 0 "/></g></g></g><g fill="#518b03" fill-opacity="1"><g transform="translate(273.060253, 221.759542)"><g><path d="M 10.515625 -22.15625 L 15.625 -22.15625 C 15.625 -23 15.5625 -23.898438 15.4375 -24.859375 C 15.3125 -25.816406 15.007812 -26.695312 14.53125 -27.5 C 14.0625 -28.300781 13.351562 -28.960938 12.40625 -29.484375 C 11.46875 -30.015625 10.203125 -30.257812 8.609375 -30.21875 C 7.296875 -30.1875 6.203125 -29.914062 5.328125 -29.40625 C 4.460938 -28.894531 3.773438 -28.257812 3.265625 -27.5 C 2.753906 -26.695312 2.398438 -25.820312 2.203125 -24.875 C 2.003906 -23.9375 1.90625 -23.03125 1.90625 -22.15625 C 1.90625 -21.070312 2.066406 -20.101562 2.390625 -19.25 C 2.722656 -18.394531 3.125 -17.601562 3.59375 -16.875 C 4.101562 -16.15625 4.65625 -15.484375 5.25 -14.859375 C 5.851562 -14.242188 6.484375 -13.628906 7.140625 -13.015625 C 7.972656 -12.179688 8.75 -11.316406 9.46875 -10.421875 C 10.195312 -9.535156 10.5625 -8.640625 10.5625 -7.734375 C 10.5625 -6.859375 10.441406 -6.039062 10.203125 -5.28125 C 9.972656 -4.519531 9.457031 -4.140625 8.65625 -4.140625 C 8.070312 -4.140625 7.617188 -4.300781 7.296875 -4.625 C 6.972656 -4.957031 6.71875 -5.359375 6.53125 -5.828125 C 6.351562 -6.265625 6.234375 -6.742188 6.171875 -7.265625 C 6.117188 -7.796875 6.09375 -8.257812 6.09375 -8.65625 L 0.984375 -8.65625 C 0.984375 -7.851562 1.0625 -6.9375 1.21875 -5.90625 C 1.382812 -4.875 1.738281 -3.882812 2.28125 -2.9375 C 2.832031 -2.03125 3.613281 -1.238281 4.625 -0.5625 C 5.644531 0.101562 6.988281 0.4375 8.65625 0.4375 C 9.96875 0.4375 11.066406 0.179688 11.953125 -0.328125 C 12.835938 -0.835938 13.570312 -1.488281 14.15625 -2.28125 C 14.695312 -3.050781 15.085938 -3.914062 15.328125 -4.875 C 15.566406 -5.832031 15.6875 -6.785156 15.6875 -7.734375 C 15.6875 -8.710938 15.53125 -9.628906 15.21875 -10.484375 C 14.90625 -11.335938 14.515625 -12.144531 14.046875 -12.90625 C 13.578125 -13.632812 13.03125 -14.320312 12.40625 -14.96875 C 11.789062 -15.625 11.195312 -16.242188 10.625 -16.828125 C 10.1875 -17.222656 9.757812 -17.640625 9.34375 -18.078125 C 8.925781 -18.515625 8.550781 -18.953125 8.21875 -19.390625 C 7.851562 -19.816406 7.5625 -20.265625 7.34375 -20.734375 C 7.132812 -21.210938 7.03125 -21.6875 7.03125 -22.15625 C 7.03125 -22.519531 7.046875 -22.910156 7.078125 -23.328125 C 7.117188 -23.742188 7.207031 -24.117188 7.34375 -24.453125 C 7.457031 -24.773438 7.625 -25.050781 7.84375 -25.28125 C 8.0625 -25.519531 8.351562 -25.640625 8.71875 -25.640625 C 9.144531 -25.640625 9.476562 -25.519531 9.71875 -25.28125 C 9.957031 -25.050781 10.148438 -24.773438 10.296875 -24.453125 C 10.398438 -24.085938 10.460938 -23.703125 10.484375 -23.296875 C 10.503906 -22.898438 10.515625 -22.519531 10.515625 -22.15625 Z M 10.515625 -22.15625 "/></g></g></g><g fill="#518b03" fill-opacity="1"><g transform="translate(293.80343, 221.759542)"><g><path d="M 7.671875 0 L 7.671875 -23.46875 C 7.742188 -23.613281 7.828125 -23.738281 7.921875 -23.84375 C 8.015625 -23.957031 8.097656 -24.066406 8.171875 -24.171875 C 8.347656 -24.359375 8.535156 -24.523438 8.734375 -24.671875 C 8.941406 -24.816406 9.1875 -24.890625 9.46875 -24.890625 C 9.800781 -24.890625 10.101562 -24.816406 10.375 -24.671875 C 10.644531 -24.523438 10.78125 -24.160156 10.78125 -23.578125 L 10.78125 0 L 16.28125 0 L 16.28125 -24.390625 C 16.28125 -25.015625 16.195312 -25.671875 16.03125 -26.359375 C 15.875 -27.046875 15.628906 -27.679688 15.296875 -28.265625 C 14.972656 -28.804688 14.546875 -29.265625 14.015625 -29.640625 C 13.492188 -30.023438 12.867188 -30.21875 12.140625 -30.21875 C 11.671875 -30.21875 11.203125 -30.09375 10.734375 -29.84375 C 10.253906 -29.582031 9.804688 -29.257812 9.390625 -28.875 C 8.972656 -28.5 8.617188 -28.164062 8.328125 -27.875 C 7.960938 -27.507812 7.742188 -27.3125 7.671875 -27.28125 L 7.671875 -40.015625 L 2.171875 -40.015625 L 2.171875 0 Z M 7.671875 0 "/></g></g></g><g fill="#518b03" fill-opacity="1"><g transform="translate(316.125442, 221.759542)"><g><path d="M 10.515625 -22.703125 L 10.515625 -19.4375 C 10.398438 -19.144531 10.109375 -18.863281 9.640625 -18.59375 C 9.171875 -18.320312 8.585938 -18.003906 7.890625 -17.640625 C 7.203125 -17.273438 6.476562 -16.828125 5.71875 -16.296875 C 4.957031 -15.773438 4.25 -15.097656 3.59375 -14.265625 C 2.9375 -13.460938 2.390625 -12.453125 1.953125 -11.234375 C 1.523438 -10.023438 1.3125 -8.585938 1.3125 -6.921875 C 1.3125 -5.359375 1.472656 -4.09375 1.796875 -3.125 C 2.117188 -2.164062 2.519531 -1.429688 3 -0.921875 C 3.425781 -0.378906 3.894531 -0.0195312 4.40625 0.15625 C 4.914062 0.34375 5.351562 0.4375 5.71875 0.4375 C 6.257812 0.4375 6.785156 0.335938 7.296875 0.140625 C 7.804688 -0.0546875 8.242188 -0.300781 8.609375 -0.59375 C 9.003906 -0.882812 9.316406 -1.191406 9.546875 -1.515625 C 9.785156 -1.847656 9.976562 -2.140625 10.125 -2.390625 L 10.515625 -2.390625 C 10.515625 -2.210938 10.53125 -1.84375 10.5625 -1.28125 C 10.601562 -0.71875 10.75 -0.289062 11 0 L 16.390625 0 C 16.285156 -0.65625 16.195312 -1.34375 16.125 -2.0625 C 16.050781 -2.789062 16.015625 -3.828125 16.015625 -5.171875 L 16.015625 -23.46875 C 16.015625 -24.445312 15.832031 -25.351562 15.46875 -26.1875 C 15.101562 -27.019531 14.613281 -27.726562 14 -28.3125 C 12.65625 -29.582031 11.09375 -30.21875 9.3125 -30.21875 C 7.164062 -30.21875 5.40625 -29.4375 4.03125 -27.875 C 3.375 -27.15625 2.851562 -26.3125 2.46875 -25.34375 C 2.09375 -24.382812 1.90625 -23.359375 1.90625 -22.265625 L 1.90625 -21.015625 L 7.40625 -21.015625 C 7.40625 -21.234375 7.40625 -21.457031 7.40625 -21.6875 C 7.40625 -21.925781 7.40625 -22.175781 7.40625 -22.4375 C 7.40625 -22.6875 7.410156 -22.929688 7.421875 -23.171875 C 7.441406 -23.410156 7.472656 -23.632812 7.515625 -23.84375 C 7.585938 -24.28125 7.734375 -24.648438 7.953125 -24.953125 C 8.171875 -25.265625 8.515625 -25.421875 8.984375 -25.421875 C 9.640625 -25.421875 10.09375 -25.113281 10.34375 -24.5 C 10.414062 -24.25 10.460938 -23.953125 10.484375 -23.609375 C 10.503906 -23.265625 10.515625 -22.960938 10.515625 -22.703125 Z M 10.515625 -14.375 L 10.515625 -6.75 C 10.515625 -6.238281 10.285156 -5.8125 9.828125 -5.46875 C 9.367188 -5.125 8.832031 -4.953125 8.21875 -4.953125 C 7.894531 -4.953125 7.632812 -5.0625 7.4375 -5.28125 C 7.238281 -5.5 7.082031 -5.769531 6.96875 -6.09375 C 6.863281 -6.382812 6.789062 -6.679688 6.75 -6.984375 C 6.71875 -7.296875 6.703125 -7.546875 6.703125 -7.734375 C 6.703125 -9.148438 7 -10.460938 7.59375 -11.671875 C 8.195312 -12.890625 9.171875 -13.789062 10.515625 -14.375 Z M 10.515625 -14.375 "/></g></g></g></svg>